<?xml version="1.0" standalone="no"?>
<!DOCTYPE svg PUBLIC "-//W3C//DTD SVG 1.1//EN" "http://www.w3.org/Graphics/SVG/1.1/DTD/svg11.dtd" >
<svg xmlns="http://www.w3.org/2000/svg">
<metadata>
<json>
<![CDATA[
{
	"fontFamily": "bentley-iconfont",
	"majorVersion": 1,
	"minorVersion": 0,
	"version": "Version 1.0",
	"fontId": "bentley-iconfont",
	"psName": "bentley-iconfont",
	"subFamily": "Regular",
	"fullName": "bentley-iconfont",
	"description": "Font generated by IcoMoon."
}
]]>
</json>
</metadata>
<defs>
<font id="bentley-iconfont" horiz-adv-x="1024">
<font-face units-per-em="1024" ascent="960" descent="-64" />
<missing-glyph horiz-adv-x="1024" />
<glyph unicode="&#x20;" horiz-adv-x="512" d="" />
<glyph unicode="&#xe900;" glyph-name="icon-acrobat" data-tags="icon-acrobat" d="M889.6 352c0 0-51.2 6.4-134.4 6.4-25.6 0-51.2 0-76.8 0-153.6 115.2-281.6 236.8-352 300.8 0 6.4 0 12.8 0 19.2 6.4 96 0 160-32 192-19.2 25.6-44.8 32-70.4 19.2-19.2 0-57.6-19.2-64-57.6-12.8-38.4 6.4-83.2 57.6-140.8 0 0 19.2-19.2 51.2-51.2-25.6-96-76.8-300.8-102.4-396.8-57.6-32-108.8-70.4-147.2-115.2v0-6.4c-6.4-6.4-25.6-51.2-6.4-89.6 6.4-12.8 19.2-25.6 38.4-32h6.4c0 0 6.4 0 12.8 0 32 0 108.8 19.2 147.2 166.4l12.8 38.4c140.8 70.4 320 89.6 448 96 64-51.2 134.4-96 198.4-134.4v0c0 0 32-12.8 64-12.8 44.8 0 83.2 32 96 76.8v6.4c6.4 25.6-6.4 57.6-19.2 76.8-51.2 38.4-121.6 38.4-128 38.4v0zM57.6 51.2c0 0 0 0 0 0-6.4 6.4 0 25.6 6.4 38.4 25.6 25.6 51.2 51.2 83.2 70.4-32-96-76.8-108.8-89.6-108.8v0zM256 729.6v0c-44.8 51.2-44.8 76.8-44.8 89.6 6.4 12.8 25.6 19.2 25.6 19.2 12.8 0 12.8 0 19.2-6.4 12.8-12.8 19.2-51.2 19.2-121.6-12.8 12.8-19.2 19.2-19.2 19.2v0zM230.4 268.8v0 0c25.6 102.4 64 236.8 83.2 326.4v0 0c64-64 166.4-147.2 281.6-243.2v0 0c-108.8-12.8-243.2-32-364.8-83.2v0zM966.4 236.8c-6.4-32-25.6-38.4-38.4-38.4-19.2 0-32 6.4-38.4 6.4-44.8 25.6-89.6 57.6-134.4 89.6v0c76.8 0 128-6.4 128-6.4 12.8 0 51.2-6.4 70.4-25.6 12.8 0 12.8-12.8 12.8-25.6v0z" />
<glyph unicode="&#xe901;" glyph-name="icon-active_learning" data-tags="icon-active_learning" d="M480-64l-480 128v768l480-128v-768zM1024 832l-480-128v-768l480 128v768zM512 761.6l384 102.4v96l-384-192-384 192v-96l384-102.4z" />
<glyph unicode="&#xe902;" glyph-name="icon-activity" data-tags="icon-activity" d="M979.2 428.8h-316.8l-70.4-150.4-137.6 604.8-150.4-454.4h-259.2c-25.6 0-44.8-19.2-44.8-44.8s19.2-44.8 44.8-44.8h323.2l70.4 214.4 128-553.6 153.6 339.2h259.2c25.6 0 44.8 19.2 44.8 44.8s-19.2 44.8-44.8 44.8z" />
<glyph unicode="&#xe903;" glyph-name="icon-add" data-tags="icon-add" d="M1024 576h-384v384h-256v-384h-384v-256h384v-384h256v384h384z" />
<glyph unicode="&#xe904;" glyph-name="icon-align_center" data-tags="icon-align_center" d="M44.8 153.6h940.8v-83.2h-940.8v83.2zM256 320h512v-83.2h-512v83.2zM83.2 492.8h851.2v-83.2h-851.2v83.2zM0 665.6h1024v-83.2h-1024v83.2zM172.8 832h684.8v-83.2h-684.8v83.2z" />
<glyph unicode="&#xe905;" glyph-name="icon-align_justify" data-tags="icon-align_justify" d="M0 153.6h1024v-83.2h-1024v83.2zM0 320h1024v-83.2h-1024v83.2zM0 492.8h1024v-83.2h-1024v83.2zM0 665.6h1024v-83.2h-1024v83.2zM0 832h1024v-83.2h-1024v83.2z" />
<glyph unicode="&#xe906;" glyph-name="icon-align_left" data-tags="icon-align_left" d="M0 153.6h940.8v-83.2h-940.8v83.2zM0 320h512v-83.2h-512v83.2zM0 492.8h851.2v-83.2h-851.2v83.2zM0 665.6h1024v-83.2h-1024v83.2zM0 832h684.8v-83.2h-684.8v83.2z" />
<glyph unicode="&#xe907;" glyph-name="icon-align_right" data-tags="icon-align_right" d="M83.2 153.6h940.8v-83.2h-940.8v83.2zM512 320h512v-83.2h-512v83.2zM172.8 492.8h851.2v-83.2h-851.2v83.2zM0 665.6h1024v-83.2h-1024v83.2zM339.2 832h684.8v-83.2h-684.8v83.2z" />
<glyph unicode="&#xe908;" glyph-name="icon-approve" data-tags="icon-approve" d="M384 339.2l-243.2 243.2-140.8-140.8 384-384 640 640-147.2 140.8z" />
<glyph unicode="&#xe909;" glyph-name="icon-apps_launcher" data-tags="icon-apps_launcher" d="M0 960h294.4v-294.4h-294.4v294.4zM358.4 960h294.4v-294.4h-294.4v294.4zM729.6 960h294.4v-294.4h-294.4v294.4zM0 601.6h294.4v-294.4h-294.4v294.4zM358.4 601.6h294.4v-294.4h-294.4v294.4zM729.6 601.6h294.4v-294.4h-294.4v294.4zM0 240h294.4v-294.4h-294.4v294.4zM358.4 240h294.4v-294.4h-294.4v294.4zM729.6 240h294.4v-294.4h-294.4v294.4z" />
<glyph unicode="&#xe90a;" glyph-name="icon-archived" data-tags="icon-archived" d="M659.2 422.4v-128h-294.4v128h-364.8v-409.6h1024v409.6zM416 422.4h192v-83.2h-192v83.2zM659.2 896v-128h-294.4v128h-364.8v-409.6h1024v409.6zM416 896h192v-83.2h-192v83.2z" />
<glyph unicode="&#xe90b;" glyph-name="icon-arrow_down" data-tags="icon-arrow_down" d="M832 262.4l-320-326.4-320 326.4h192v697.6h256v-697.6z" />
<glyph unicode="&#xe90c;" glyph-name="icon-arrow_left" data-tags="icon-arrow_left" d="M326.4 768l-326.4-320 326.4-320v192h697.6v256h-697.6z" />
<glyph unicode="&#xe90d;" glyph-name="icon-arrow_right" data-tags="icon-arrow_right" d="M697.6 768l326.4-320-326.4-320v192h-697.6v256h697.6z" />
<glyph unicode="&#xe90e;" glyph-name="icon-arrow_up" data-tags="icon-arrow_up" d="M832 633.6l-320 326.4-320-326.4h192v-697.6h256v697.6z" />
<glyph unicode="&#xe90f;" glyph-name="icon-bar" data-tags="icon-bar" d="M70.4 64v857.6h-70.4v-928h1024v70.4h-953.6zM684.8 608h172.8v-473.6h-172.8v473.6zM422.4 851.2h172.8v-716.8h-172.8v716.8zM147.2 672h172.8v-537.6h-172.8v537.6z" />
<glyph unicode="&#xe910;" glyph-name="icon-basket" data-tags="icon-basket" d="M979.2 646.4h-288l-83.2 185.6c-6.4 19.2-32 12.8-38.4 0l-19.2-51.2c-6.4-12.8-6.4-32 6.4-51.2l38.4-89.6h-153.6l115.2 262.4c6.4 19.2 0 38.4-19.2 44.8l-19.2 12.8c-19.2 6.4-38.4 0-44.8-12.8l-134.4-300.8h-288c-32 0-51.2-25.6-51.2-51.2v-6.4c0-32 25.6-51.2 51.2-51.2h12.8l83.2-422.4c0-19.2 19.2-32 38.4-32h652.8c19.2 0 38.4 12.8 38.4 32l83.2 422.4h12.8c32 0 51.2 25.6 51.2 51.2v6.4c6.4 25.6-19.2 51.2-44.8 51.2zM345.6 230.4c0-19.2-12.8-32-32-32s-32 12.8-32 32v192c0 19.2 12.8 32 32 32s32-12.8 32-32v-192zM550.4 230.4c0-19.2-12.8-32-32-32v0c-19.2 0-32 12.8-32 32v192c0 19.2 12.8 32 32 32v0c19.2 0 32-12.8 32-32v-192zM755.2 230.4c0-19.2-12.8-32-32-32s-32 12.8-32 32v192c0 19.2 12.8 32 32 32s32-12.8 32-32v-192z" />
<glyph unicode="&#xe911;" glyph-name="icon-bell" data-tags="icon-bell" d="M518.4-64c57.6 0 102.4 44.8 102.4 102.4h-204.8c0-57.6 44.8-102.4 102.4-102.4v0zM851.2 243.2v281.6c0 160-108.8 288-256 320v38.4c0 38.4-38.4 76.8-76.8 76.8-44.8 0-76.8-38.4-76.8-76.8v-38.4c-147.2-38.4-256-166.4-256-320v-281.6l-102.4-102.4v-51.2h870.4v51.2l-102.4 102.4z" />
<glyph unicode="&#xe912;" glyph-name="icon-budget" data-tags="icon-budget" d="M960.384 388.992v-389.376h-747.008v389.376h747.008zM1024 452.672h-874.24v-516.672h874.24v516.672zM785.536 452.672l89.472-89.664c-0.576-3.328-1.92-6.208-1.92-9.664 0-28.544 23.104-51.648 51.584-51.648 3.456 0 6.4 1.408 9.664 1.984l89.664-89.472v238.464h-238.464zM896.704 194.24c0-28.288-23.104-51.392-51.584-51.392s-51.584 23.104-51.584 51.392c0 28.544 23.104 51.584 51.584 51.584s51.584-23.040 51.584-51.584v0zM742.912 194.24c0-74.88-69.888-135.616-156.032-135.616s-156.032 60.736-156.032 135.616c0 75.072 69.888 135.872 156.032 135.872 86.144-0.064 156.032-60.8 156.032-135.872v0zM380.032 194.24c0-28.288-22.912-51.392-51.392-51.392s-51.584 23.104-51.584 51.392c0 28.544 23.104 51.584 51.584 51.584 28.544 0 51.392-23.040 51.392-51.584v0zM149.76 214.208l89.472 89.472c3.264-0.576 6.4-1.984 9.856-1.984 28.48 0 51.584 23.104 51.584 51.648 0 3.456-1.344 6.336-1.92 9.664l89.472 89.664h-238.464v-238.464zM300.672 35.328c0 28.48-23.104 51.584-51.584 51.584-3.456 0-6.4-1.344-9.664-1.92l-89.664 89.472v-238.464h238.464l-89.472 89.472c0.576 3.264 1.92 6.4 1.92 9.856v0zM924.672 86.912c-28.48 0-51.584-23.104-51.584-51.584 0-3.456 1.344-6.4 1.92-9.664l-89.472-89.664h238.464v238.464l-89.472-89.472c-3.264 0.576-6.4 1.92-9.856 1.92v0zM785.536 596.416c0-28.288-23.104-51.392-51.584-51.392s-51.392 23.104-51.392 51.392c0 28.48 22.912 51.584 51.392 51.584 28.48 0.064 51.584-23.040 51.584-51.584v0zM90.176 452.672c0 32.768 26.752 59.52 59.584 59.52h32.576l1.6 4.992 459.968 251.84 35.136-10.304c1.024-3.136 1.408-6.4 3.136-9.536 13.568-25.024 44.992-34.112 70.016-20.352 2.944 1.536 5.056 4.096 7.552 6.4l35.136-10.304 80.128-146.496-10.304-35.136c-3.136-1.024-6.4-1.408-9.536-2.944-11.648-6.4-19.392-16.896-23.424-28.288h152.256l-217.28 396.736-766.72-419.648 90.176-164.928v128.448zM442.368 591.424c-34.688-18.816-59.584-47.552-73.536-79.168h287.36c-2.304 12.032-5.888 23.872-11.84 35.136-36.096 65.728-126.592 85.376-201.984 44.032v0z" />
<glyph unicode="&#xe913;" glyph-name="icon-calendar" data-tags="icon-calendar" d="M320 467.2h-128v128h128v-128zM576 595.2h-128v-128h128v128zM832 595.2h-128v-128h128v128zM320 403.2h-128v-128h128v128zM576 403.2h-128v-128h128v128zM832 403.2h-128v-128h128v128zM320 211.2h-128v-128h128v128zM576 211.2h-128v-128h128v128zM192 928v-76.8c0-38.4 25.6-64 64-64v0c38.4 0 64 25.6 64 64v76.8zM1024 851.2v-896h-1024v896h160c0-51.2 44.8-96 96-96s96 44.8 96 96h320c0-51.2 44.8-96 96-96s96 44.8 96 96h160zM960 659.2h-896v-640h896v640zM704 928v-76.8c0-38.4 25.6-64 64-64v0c38.4 0 64 25.6 64 64v76.8z" />
<glyph unicode="&#xe914;" glyph-name="icon-check" data-tags="icon-check" d="M384 332.8l-243.2 243.2-140.8-140.8 384-384 640 640-140.8 140.8z" />
<glyph unicode="&#xe915;" glyph-name="icon-chevron_down" data-tags="icon-chevron_down" d="M1024 659.2l-89.6 89.6-422.4-422.4-422.4 422.4-89.6-89.6 512-512z" />
<glyph unicode="&#xe916;" glyph-name="icon-chevron_left" data-tags="icon-chevron_left" d="M723.2 960l89.6-89.6-422.4-422.4 422.4-422.4-89.6-89.6-512 512z" />
<glyph unicode="&#xe917;" glyph-name="icon-chevron_right" data-tags="icon-chevron_right" d="M300.8 960l-89.6-89.6 422.4-422.4-422.4-422.4 89.6-89.6 512 512z" />
<glyph unicode="&#xe918;" glyph-name="icon-chevron_up" data-tags="icon-chevron_up" d="M1024 236.8l-89.6-89.6-422.4 422.4-422.4-422.4-89.6 89.6 512 512z" />
<glyph unicode="&#xe919;" glyph-name="icon-close" data-tags="icon-close" d="M896 960l-384-384-384 384-128-128 384-384-384-384 128-128 384 384 384-384 128 128-384 384 384 384z" />
<glyph unicode="&#xe91a;" glyph-name="icon-clouds" data-tags="icon-clouds" d="M1024 313.6c0-108.8-89.6-204.8-198.4-204.8h-627.2c-108.8 0-198.4 89.6-198.4 204.8 0 102.4 70.4 185.6 166.4 198.4 0 6.4 0 12.8 0 19.2 0 70.4 57.6 128 128 128 32 0 57.6-12.8 83.2-32 38.4 89.6 89.6 172.8 230.4 172.8 172.8 0 256-134.4 256-275.2 0-6.4 0-12.8 0-19.2 89.6-12.8 160-89.6 160-192v0z" />
<glyph unicode="&#xe91b;" glyph-name="icon-collapse" data-tags="icon-collapse" d="M256 512h512v-128h-512v128zM512 960c-281.6 0-512-230.4-512-512s230.4-512 512-512c281.6 0 512 230.4 512 512s-230.4 512-512 512zM512 19.2c-236.8 0-428.8 192-428.8 428.8s192 428.8 428.8 428.8c236.8 0 428.8-192 428.8-428.8s-192-428.8-428.8-428.8z" />
<glyph unicode="&#xe91c;" glyph-name="icon-collapse-window" data-tags="icon-collapse-window" d="M576 505.6v377.6l134.4-140.8 204.8 211.2 108.8-108.8-211.2-204.8 140.8-134.4zM0 51.2l211.2 211.2-140.8 134.4h377.6v-377.6l-134.4 134.4-204.8-211.2zM576 396.8h377.6l-140.8-134.4 211.2-211.2-108.8-108.8-204.8 211.2-134.4-134.4zM108.8 953.6l204.8-211.2 134.4 140.8v-377.6h-377.6l140.8 134.4-211.2 204.8z" />
<glyph unicode="&#xe91d;" glyph-name="icon-collapse-window-2" data-tags="icon-collapse-window-2" d="M576 505.6v377.6l134.4-140.8 204.8 211.2 108.8-108.8-211.2-204.8 140.8-134.4zM0 51.2l211.2 211.2-140.8 134.4h377.6v-377.6l-134.4 134.4-204.8-211.2z" />
<glyph unicode="&#xe91e;" glyph-name="icon-comments" data-tags="icon-comments" d="M985.6 857.6h-947.2c-19.2 0-38.4-19.2-38.4-38.4v-627.2c0-19.2 19.2-38.4 38.4-38.4h76.8l121.6-121.6 121.6 121.6h627.2c19.2 0 38.4 19.2 38.4 38.4v627.2c0 19.2-19.2 38.4-38.4 38.4zM576 352h-384v64h384v-64zM832 480h-640v64h640v-64zM832 614.4h-640v64h640v-64z" />
<glyph unicode="&#xe91f;" glyph-name="icon-compare" data-tags="icon-compare" d="M544 480v262.4h262.4l-179.2-332.8v-19.2c0-108.8 89.6-192 198.4-192s198.4 89.6 198.4 192v19.2l-179.2 332.8h25.6v32h-716.8v-32h25.6l-179.2-332.8v-19.2c0-108.8 89.6-192 198.4-192s198.4 89.6 198.4 192v19.2l-179.2 332.8h262.4v-268.8zM480 691.2v-537.6h-128v-64h326.4v64h-128v537.6zM38.4 409.6l160 300.8 160-300.8h-320zM825.6 710.4l160-300.8h-320l160 300.8z" />
<glyph unicode="&#xe920;" glyph-name="icon-construction" data-tags="icon-construction" d="M1017.6 659.2c-6.4 6.4-6.4 6.4-12.8 6.4s-19.2-6.4-44.8-25.6c-25.6-12.8-57.6-32-89.6-51.2s-51.2-32-51.2-32l-128 70.4v147.2l204.8 128c0 6.4-6.4 12.8-12.8 19.2-19.2 12.8-44.8 25.6-70.4 32-32 0-57.6 6.4-83.2 6.4-83.2 0-147.2-25.6-204.8-83.2s-83.2-128-83.2-204.8c0-32 0-64 6.4-89.6l-448-448 185.6-192 448 448c32-12.8 64-19.2 96-19.2 64 0 115.2 19.2 166.4 57.6s89.6 83.2 108.8 140.8c12.8 32 19.2 51.2 19.2 70.4 0 6.4 0 12.8-6.4 19.2zM224 108.8c-6.4-6.4-19.2-12.8-32-12.8s-19.2 6.4-32 12.8c-6.4 6.4-12.8 19.2-12.8 32s6.4 19.2 12.8 32c6.4 6.4 19.2 12.8 32 12.8s19.2-6.4 32-12.8c6.4-6.4 12.8-19.2 12.8-32s-6.4-25.6-12.8-32z" />
<glyph unicode="&#xe921;" glyph-name="icon-contractor" data-tags="icon-contractor" d="M541.696 622.72c143.936 0 260.672 14.592 260.672 32.32 0 3.968-6.464 7.744-16.896 11.072-7.936 132.032-7.104 293.888-243.776 293.888-236.416 0-235.84-161.856-243.52-293.888-10.496-3.328-16.96-7.104-16.96-11.072 0-17.728 116.608-32.32 260.48-32.32v0zM759.168 603.2c-47.616-7.936-121.792-12.736-206.208-12.736-99.392 0-184.832 6.912-228.736 16.896 15.424-137.024 106.496-242.944 217.856-242.944 109.952 0.064 199.936 103.68 217.088 238.784v0zM512.448 316.096c-46.336 5.76-90.432 23.552-128.96 52.736-3.328 2.56-7.808 2.88-11.52 0.96l-168.128-87.552c-10.816-5.632-19.52-14.912-24.512-26.048l-108.352-244.032c-7.488-16.832-5.952-36.096 4.096-51.52s27.008-24.64 45.44-24.64h342.784l49.152 380.096zM1019.328 12.16l-108.352 244.032c-4.928 11.2-13.632 20.416-24.512 26.048l-168.128 87.552c-3.712 1.92-8.192 1.536-11.52-0.96-38.592-29.184-82.752-46.976-129.152-52.736l61.312-380.096h330.816c18.432 0 35.392 9.216 45.44 24.64 9.984 15.424 11.584 34.688 4.096 51.52z" />
<glyph unicode="&#xe922;" glyph-name="icon-contracts" data-tags="icon-contracts" d="M84.416 960v-868.736h410.24v180.992h337.856v-180.992h108.608v868.736h-856.704zM464.448 310.336h-263.296v39.744h263.296v-39.744zM830.4 430.976h-629.184v39.744h629.184v-39.744zM830.4 550.208h-629.184v39.744h629.184v-39.744zM830.4 669.504h-629.184v39.744h629.184v-39.744zM830.4 788.736h-629.184v39.744h629.184v-39.744zM530.816-64l132.736 84.096 132.736-84.096v297.024h-265.472z" />
<glyph unicode="&#xe923;" glyph-name="icon-delete" data-tags="icon-delete" d="M742.4 800l-38.4 102.4c-6.4 12.8-19.2 25.6-32 38.4-19.2 12.8-38.4 19.2-51.2 19.2h-198.4c-19.2 0-38.4-6.4-51.2-19.2-19.2-6.4-25.6-19.2-32-38.4l-44.8-102.4h-224v-147.2h83.2v-595.2c0-32 12.8-64 32-89.6 25.6-19.2 44.8-32 76.8-32h518.4c25.6 0 51.2 12.8 70.4 38.4s32 57.6 32 89.6v588.8h76.8v147.2h-217.6zM409.6 870.4c0 6.4 6.4 6.4 12.8 6.4h198.4c6.4 0 6.4 0 12.8-6.4l32-70.4h-288l32 70.4zM403.2 70.4h-89.6v512h89.6v-512zM563.2 70.4h-89.6v512h89.6v-512zM716.8 70.4h-89.6v512h89.6v-512z" />
<glyph unicode="&#xe924;" glyph-name="icon-download" data-tags="icon-download" d="M870.4 531.2h-217.6v428.8h-288v-428.8h-217.6l358.4-371.2zM902.4 249.6v-192h-774.4v192h-128v-313.6h1024v313.6z" />
<glyph unicode="&#xe925;" glyph-name="icon-edit" data-tags="icon-edit" d="M563.2 780.8l281.6-281.6-563.2-563.2h-281.6v281.6l563.2 563.2zM243.2 25.6l64 64-160 160-64-64v-70.4h89.6v-89.6h70.4zM601.6 652.8c0 12.8-6.4 12.8-12.8 12.8s-6.4 0-12.8-6.4l-364.8-364.8c0 0-6.4-6.4-6.4-12.8 0-12.8 6.4-12.8 12.8-12.8s6.4 0 12.8 6.4l364.8 364.8c0 0 6.4 6.4 6.4 12.8zM1024 716.8c0-25.6-6.4-44.8-25.6-64l-115.2-115.2-275.2 288 115.2 108.8c19.2 19.2 38.4 25.6 64 25.6s44.8-6.4 64-25.6l160-160c6.4-12.8 12.8-38.4 12.8-57.6z" />
<glyph unicode="&#xe926;" glyph-name="icon-email" data-tags="icon-email" d="M25.6 787.2c0-6.4 6.4-6.4 19.2-19.2 6.4 0 12.8-6.4 12.8-6.4l454.4-345.6 454.4 339.2 6.4 12.8c12.8 6.4 19.2 12.8 19.2 19.2zM1024 83.2v640l-512-396.8-512 396.8v-633.6z" />
<glyph unicode="&#xe927;" glyph-name="icon-event" data-tags="icon-event" d="M192.832 960h62.080v-1024h-62.080v1024zM867.136 572.096h-550.208v387.904h550.208l-224-193.92z" />
<glyph unicode="&#xe928;" glyph-name="icon-expand" data-tags="icon-expand" d="M576 704h-128v-192h-192v-128h192v-192h128v192h192v128h-192zM512 960c-281.6 0-512-230.4-512-512s230.4-512 512-512c281.6 0 512 230.4 512 512s-230.4 512-512 512zM512 19.2c-236.8 0-428.8 192-428.8 428.8s192 428.8 428.8 428.8c236.8 0 428.8-192 428.8-428.8s-192-428.8-428.8-428.8z" />
<glyph unicode="&#xe929;" glyph-name="icon-expand-window" data-tags="icon-expand-window" d="M1024 960v-384l-140.8 140.8-211.2-217.6-108.8 108.8 217.6 211.2-140.8 140.8zM460.8 288l-217.6-211.2 140.8-140.8h-384v384l140.8-140.8 211.2 217.6z" />
<glyph unicode="&#xe92a;" glyph-name="icon-export" data-tags="icon-export" d="M768 160h-640v448h140.8l160 128h-428.8v-704h896v358.4l-128-102.4v-128zM256 288c108.8 108.8 236.8 198.4 448 192v-128l320 256-320 256v-128c-224 0-448-198.4-448-448v0z" />
<glyph unicode="&#xe92b;" glyph-name="icon-favorite" data-tags="icon-favorite" d="M1024 563.2c-6.4 12.8-19.2 25.6-32 25.6l-307.2 44.8-134.4 281.6c-12.8 12.8-25.6 19.2-38.4 19.2s-25.6-6.4-38.4-19.2l-134.4-281.6-307.2-44.8c-12.8 0-25.6-12.8-32-25.6 0-12.8 0-32 12.8-38.4l224-217.6-57.6-307.2c0-12.8 6.4-32 12.8-38.4 12.8-6.4 25.6-12.8 44.8 0l275.2 140.8 275.2-140.8c6.4 0 12.8-6.4 19.2-6.4s19.2 0 25.6 6.4c12.8 6.4 19.2 25.6 12.8 38.4l-51.2 307.2 224 217.6c6.4 6.4 6.4 25.6 6.4 38.4v0z" />
<glyph unicode="&#xe92c;" glyph-name="icon-file" data-tags="icon-file" d="M640 960h-524.8v-1024h780.8v780.8h-256zM704 960v-192h192z" />
<glyph unicode="&#xe92d;" glyph-name="icon-fill" data-tags="icon-fill" d="M467.2 908.8l-467.2-467.2 435.2-435.2 467.2 467.2-435.2 435.2zM166.4 512l300.8 294.4 294.4-294.4h-595.2zM889.6 409.6c0 0-134.4-192-134.4-275.2 0-70.4 57.6-128 134.4-128s134.4 57.6 134.4 128c0 83.2-134.4 275.2-134.4 275.2v0z" />
<glyph unicode="&#xe92e;" glyph-name="icon-filter" data-tags="icon-filter" d="M0 960v-83.2l384-384v-556.8l256 172.8v384l384 384v83.2z" />
<glyph unicode="&#xe92f;" glyph-name="icon-filter-outlined" data-tags="icon-filter-outlined" d="M0 960v-83.2l384-384v-556.8l256 172.8v384l384 384v83.2h-1024zM597.312 525.312v-384l-170.688-117.312v503.488l-384 384 938.688-2.112-384-384.064z" />
<glyph unicode="&#xe930;" glyph-name="icon-folder" data-tags="icon-folder" d="M972.8 806.4h-416l-19.2 38.4c-19.2 32-44.8 44.8-76.8 44.8h-403.2c-32 0-57.6-25.6-57.6-57.6v-787.2c0-25.6 19.2-44.8 51.2-44.8h928c25.6 0 51.2 19.2 51.2 44.8v710.4c-6.4 25.6-25.6 51.2-57.6 51.2z" />
<glyph unicode="&#xe931;" glyph-name="icon-font_bold" data-tags="icon-font_bold" d="M147.2 960h320c147.2 0 249.6-19.2 313.6-64s96-108.8 96-198.4c0-64-12.8-108.8-44.8-153.6-25.6-38.4-64-64-115.2-70.4v-6.4c64-12.8 108.8-38.4 140.8-83.2 25.6-38.4 44.8-89.6 44.8-160 0-96-32-166.4-102.4-217.6s-153.6-70.4-268.8-70.4h-384v1024zM364.8 556.8h128c57.6 0 102.4 6.4 128 25.6s38.4 51.2 38.4 89.6c0 38.4-12.8 70.4-44.8 83.2-25.6 19.2-70.4 25.6-134.4 25.6h-115.2v-224zM364.8 384v-268.8h147.2c57.6 0 102.4 12.8 134.4 32s44.8 57.6 44.8 102.4c0 83.2-57.6 128-179.2 128h-147.2z" />
<glyph unicode="&#xe932;" glyph-name="icon-font_color" data-tags="icon-font_color" d="M710.4 595.2l-224 224-441.6-441.6v-224h224l441.6 441.6zM204.8 435.2l288 288c0 0 6.4 6.4 6.4 6.4 6.4 0 12.8-6.4 12.8-12.8 6.4-6.4 0-6.4 0-12.8l-288-281.6c0 0-6.4-6.4-6.4-6.4-6.4 0-12.8 6.4-12.8 12.8 0 0 0 6.4 0 6.4zM179.2 224v70.4h-64v51.2l51.2 51.2 128-128-51.2-51.2h-64zM832 716.8c12.8 12.8 19.2 32 19.2 44.8 0 19.2-6.4 32-19.2 51.2l-128 121.6c-12.8 19.2-25.6 25.6-44.8 25.6s-38.4-6.4-51.2-19.2l-89.6-89.6 224-224 89.6 89.6zM51.2 51.2h934.4v-115.2h-934.4v115.2z" />
<glyph unicode="&#xe933;" glyph-name="icon-font_italic" data-tags="icon-font_italic" d="M422.4 934.4l6.4 25.6h499.2l-12.8-25.6c-44.8 0-76.8-12.8-102.4-32s-44.8-64-64-128l-185.6-652.8c-12.8-44.8-19.2-76.8-19.2-96s6.4-32 19.2-44.8c19.2-12.8 51.2-19.2 102.4-19.2l-6.4-25.6h-505.6l6.4 25.6c51.2 0 89.6 12.8 108.8 32 25.6 19.2 44.8 64 64 128l192 652.8c12.8 38.4 19.2 70.4 19.2 89.6s-6.4 32-19.2 44.8c-19.2 12.8-51.2 19.2-102.4 25.6v0z" />
<glyph unicode="&#xe934;" glyph-name="icon-font_size" data-tags="icon-font_size" d="M857.6 601.6h-121.6l-147.2-416-204.8 582.4h-160l-224-633.6h147.2l44.8 153.6h230.4l44.8-147.2h211.2l32 108.8h166.4l32-108.8h115.2l-166.4 460.8zM224 396.8c44.8 147.2 70.4 236.8 83.2 275.2 0-12.8 6.4-25.6 12.8-44.8 0-19.2 25.6-96 70.4-230.4h-166.4zM742.4 326.4c32 108.8 51.2 172.8 57.6 198.4 0-6.4 6.4-19.2 6.4-32 6.4-12.8 19.2-70.4 51.2-172.8h-115.2z" />
<glyph unicode="&#xe935;" glyph-name="icon-forward" data-tags="icon-forward" d="M0 76.8c147.2 140.8 313.6 268.8 601.6 256v-166.4l422.4 339.2-422.4 339.2v-166.4c-307.2-6.4-601.6-268.8-601.6-601.6v0z" />
<glyph unicode="&#xe936;" glyph-name="icon-full_screen" data-tags="icon-full_screen" d="M1024 960v-384l-140.8 140.8-211.2-211.2-108.8 102.4 211.2 211.2-134.4 140.8h384zM243.2 819.2l211.2-211.2-102.4-108.8-211.2 217.6-140.8-140.8v384h384l-140.8-140.8zM883.2 179.2l140.8 140.8v-384h-384l140.8 140.8-211.2 211.2 108.8 108.8 204.8-217.6zM460.8 288l-211.2-211.2 134.4-140.8h-384v384l140.8-140.8 211.2 211.2 108.8-102.4z" />
<glyph unicode="&#xe937;" glyph-name="icon-hand" data-tags="icon-hand" d="M870.4 742.4c0-32-25.6-57.6-57.6-57.6s-57.6 25.6-57.6 57.6 25.6 57.6 57.6 57.6c32 0 57.6-25.6 57.6-57.6v0zM710.4 864c0-32-25.6-57.6-57.6-57.6-32-6.4-57.6 25.6-57.6 57.6s25.6 57.6 57.6 57.6 57.6-25.6 57.6-57.6v0zM556.8 902.4c0-32-25.6-57.6-57.6-57.6s-57.6 25.6-57.6 57.6c-6.4 32 19.2 57.6 51.2 57.6 38.4 0 64-25.6 64-57.6v0zM396.8 819.2c0-32-25.6-57.6-57.6-57.6s-57.6 25.6-57.6 57.6 25.6 57.6 57.6 57.6c32 6.4 57.6-19.2 57.6-57.6v0zM748.8 742.4v-256c0-12.8-6.4-19.2-19.2-19.2s-19.2 6.4-19.2 19.2v377.6h-115.2v-332.8c0-12.8-6.4-19.2-19.2-19.2s-19.2 6.4-19.2 19.2v371.2h-121.6v-371.2c0-12.8-6.4-19.2-19.2-19.2s-19.2 6.4-19.2 19.2v288h-115.2v-492.8l-83.2 115.2c-25.6 32-70.4 44.8-102.4 25.6s-44.8-70.4-19.2-102.4c0 0 128-192 185.6-275.2 51.2-89.6 140.8-153.6 307.2-153.6 275.2 0 300.8 211.2 300.8 275.2v531.2h-121.6z" />
<glyph unicode="&#xe938;" glyph-name="icon-history" data-tags="icon-history" d="M537.6 928c-179.2 0-339.2-96-422.4-243.2l-115.2 115.2v-332.8h332.8l-140.8 140.8c64 128 192 217.6 345.6 217.6 211.2 0 384-172.8 384-384s-172.8-384-384-384c-166.4 0-307.2 108.8-364.8 256h-108.8c57.6-204.8 243.2-358.4 473.6-358.4 268.8 0 486.4 217.6 486.4 486.4s-217.6 486.4-486.4 486.4zM460.8 672v-262.4l243.2-140.8 38.4 64-204.8 121.6v217.6h-76.8z" />
<glyph unicode="&#xe939;" glyph-name="icon-home" data-tags="icon-home" d="M147.2 416v-396.8c0 0 0-25.6 19.2-25.6 25.6 0 256 0 256 0v262.4h172.8v-262.4h249.6c25.6 0 25.6 25.6 25.6 25.6v396.8l-345.6 313.6-377.6-313.6zM870.4 588.8v211.2h-96v-115.2l-249.6 217.6-524.8-448 51.2-51.2 473.6 396.8 448-396.8 51.2 51.2z" />
<glyph unicode="&#xe93a;" glyph-name="icon-image" data-tags="icon-image" d="M659.2 518.4l-166.4-217.6-108.8 108.8-198.4-217.6h678.4zM364.8 582.4c0-45.95-37.25-83.2-83.2-83.2s-83.2 37.25-83.2 83.2c0 45.95 37.25 83.2 83.2 83.2s83.2-37.25 83.2-83.2zM0 844.8v-800h1024v800h-1024zM928 140.8h-832v614.4h832v-614.4z" />
<glyph unicode="&#xe93b;" glyph-name="icon-inspection" data-tags="icon-inspection" d="M434.816 684.416c-114.944 0-214.592-66.944-263.552-164.736 48.96-97.792 148.608-164.736 263.552-164.736s214.592 66.944 263.552 164.736c-48.96 97.792-148.608 164.736-263.552 164.736v0zM564.8 597.056c30.976-19.776 57.216-46.208 76.928-77.376-19.712-31.168-45.952-57.6-76.928-77.376-38.912-24.832-83.84-37.952-129.92-37.952s-91.008 13.12-129.92 37.952c-30.976 19.776-57.216 46.208-76.928 77.376 19.712 31.168 45.952 57.6 76.928 77.376 2.048 1.28 4.032 2.56 6.080 3.776-5.12-14.080-7.936-29.248-7.936-45.12 0-72.768 59.008-131.776 131.776-131.776s131.776 59.008 131.776 131.776c0 15.808-2.816 31.040-7.936 45.12 1.984-1.28 4.032-2.496 6.080-3.776v0zM1014.464 17.024l-239.488 239.488c58.624 74.048 93.952 167.424 93.952 269.056 0 239.552-194.88 434.496-434.496 434.496-239.552-0.064-434.432-194.944-434.432-434.56 0-239.552 194.88-434.496 434.496-434.496 96.704 0 185.856 32.128 258.112 85.824l240.832-240.832 81.024 81.024zM85.952 525.504c0 192.192 156.352 348.544 348.544 348.544s348.544-156.352 348.544-348.544c0-192.192-156.352-348.544-348.544-348.544s-348.544 156.352-348.544 348.544z" />
<glyph unicode="&#xe93c;" glyph-name="icon-layers" data-tags="icon-layers" d="M1024 652.8l-512 275.2-512-275.2 512-275.2 512 275.2zM512 281.6l-416 224-96-51.2 512-275.2 512 275.2-96 51.2-416-224zM512 89.6l-416 224-96-51.2 512-275.2 512 275.2-96 51.2-416-224z" />
<glyph unicode="&#xe93d;" glyph-name="icon-learning_paths" data-tags="icon-learning_paths" d="M374.4 960c-60.8 0-112-51.2-112-112s51.2-112 112-112 112 51.2 112 112-48 112-112 112zM726.4 800c-60.8 0-112-51.2-112-112s51.2-112 112-112 112 51.2 112 112-48 112-112 112zM326.4 713.6v-531.2c16 6.4 32 9.6 48 9.6s32-3.2 48-9.6v35.2c0 6.4 12.8 28.8 28.8 35.2v0 0l233.6 96c0 0 0 0 0 0 28.8 12.8 48 32 64 54.4s25.6 48 25.6 80v70.4c-16-6.4-32-9.6-51.2-9.6-16 0-32 3.2-44.8 9.6v-70.4c0-3.2-3.2-16-9.6-25.6s-16-16-19.2-19.2v0l-227.2-92.8v368c-16-6.4-32-9.6-48-9.6s-32 3.2-48 9.6v0zM374.4 160c-60.8 0-112-51.2-112-112s51.2-112 112-112 112 51.2 112 112-48 112-112 112z" />
<glyph unicode="&#xe93e;" glyph-name="icon-link" data-tags="icon-link" d="M947.2 499.2l-192-192c-108.8-108.8-275.2-108.8-384 0-19.2 12.8-32 32-44.8 51.2l89.6 89.6c6.4 6.4 6.4 6.4 12.8 12.8 6.4-25.6 19.2-44.8 32-64 51.2-51.2 140.8-51.2 192 0l192 192c51.2 51.2 51.2 140.8 0 192s-140.8 51.2-192 0l-64-64c-57.6 19.2-115.2 25.6-172.8 19.2l147.2 147.2c108.8 108.8 275.2 108.8 384 0 102.4-108.8 102.4-281.6 0-384v0zM435.2 179.2l-70.4-70.4c-51.2-51.2-140.8-51.2-192 0s-51.2 140.8 0 192l192 192c51.2 51.2 140.8 51.2 192 0 19.2-12.8 32-32 38.4-51.2 6.4 0 12.8 6.4 12.8 6.4l89.6 89.6c-12.8 19.2-25.6 38.4-38.4 57.6-108.8 108.8-275.2 108.8-384 0l-192-192c-108.8-108.8-108.8-275.2 0-384s275.2-108.8 384 0l147.2 147.2c-64-12.8-121.6-6.4-179.2 12.8v0z" />
<glyph unicode="&#xe93f;" glyph-name="icon-list" data-tags="icon-list" d="M128 896c0-38.4-25.6-64-64-64s-64 25.6-64 64c0 38.4 25.6 64 64 64 32 0 64-25.6 64-64v0zM128 595.2c0-38.4-25.6-64-64-64-32 0-64 25.6-64 64s25.6 64 64 64c32 0 64-25.6 64-64v0zM128 300.8c0-38.4-25.6-64-64-64-32 0-64 25.6-64 64s25.6 64 64 64c32 0 64-25.6 64-64v0zM128 0c0-38.4-25.6-64-64-64-32 0-64 25.6-64 64s25.6 64 64 64c32 0 64-32 64-64v0zM262.4 960h761.6v-128h-761.6v128zM262.4 659.2h761.6v-128h-761.6v128zM262.4 364.8h761.6v-128h-761.6v128zM262.4 64h761.6v-128h-761.6v128z" />
<glyph unicode="&#xe940;" glyph-name="icon-locked" data-tags="icon-locked" d="M832 512v140.8c0 166.4-140.8 307.2-313.6 307.2-166.4 0-307.2-140.8-307.2-307.2v-140.8h-64v-576h748.8v576h-64zM326.4 652.8c0 108.8 89.6 192 192 192 108.8 0 192-89.6 192-192v-140.8h-384v140.8zM576 96h-108.8l12.8 160c-19.2 6.4-32 32-32 51.2 0 38.4 32 70.4 70.4 70.4s70.4-32 70.4-70.4c0-25.6-12.8-44.8-32-57.6l19.2-153.6z" />
<glyph unicode="&#xe941;" glyph-name="icon-map" data-tags="icon-map" d="M716.8 230.4l-96-294.4h403.2v204.8zM748.8 332.8l275.2-83.2v710.4h-76.8zM428.8 582.4c0-60.089-48.711-108.8-108.8-108.8s-108.8 48.711-108.8 108.8c0 60.089 48.711 108.8 108.8 108.8s108.8-48.711 108.8-108.8zM0 960v-1024h512l326.4 1024h-838.4zM435.2 352c-44.8-76.8-83.2-140.8-83.2-140.8l-32-44.8-32 44.8c0 0-44.8 64-83.2 140.8-64 108.8-89.6 179.2-89.6 230.4 0 115.2 89.6 204.8 204.8 204.8s204.8-89.6 204.8-204.8c0-51.2-25.6-121.6-89.6-230.4z" />
<glyph unicode="&#xe942;" glyph-name="icon-marker" data-tags="icon-marker" d="M512 960c-185.6 0-339.2-153.6-339.2-339.2 0-76.8 51.2-198.4 147.2-377.6 70.4-128 140.8-230.4 140.8-236.8l51.2-70.4 51.2 76.8c0 6.4 70.4 108.8 140.8 236.8 96 179.2 147.2 300.8 147.2 377.6 0 179.2-153.6 332.8-339.2 332.8v0zM512 448c-96 0-179.2 76.8-179.2 172.8s76.8 172.8 172.8 172.8c96 0 172.8-76.8 172.8-172.8 6.4-96-70.4-172.8-166.4-172.8v0z" />
<glyph unicode="&#xe943;" glyph-name="icon-microstation" data-tags="icon-microstation" d="M806.4 102.4c-76.8 96-134.4 198.4-153.6 352-172.8-249.6-294.4-268.8-364.8-153.6l-83.2-364.8h-140.8l224 908.8 115.2 25.6c12.8 0-89.6-396.8 38.4-448 128-44.8 294.4 544 294.4 544l140.8-25.6c-102.4-236.8-102.4-486.4 70.4-704l-140.8-134.4z" />
<glyph unicode="&#xe944;" glyph-name="icon-move" data-tags="icon-move" d="M512 960l192-192h-134.4v-531.2h-108.8v531.2h-140.8l192 192zM192 505.6h576v-108.8h-576v-140.8l-192 192 192 192v-134.4zM832 505.6v134.4l192-192-192-192v140.8h-211.2v108.8h211.2zM569.6 345.6v-211.2h134.4l-192-192-192 192h140.8v211.2h108.8z" />
<glyph unicode="&#xe945;" glyph-name="icon-new-revision" data-tags="icon-new-revision" d="M723.2 748.8l185.6-185.6-371.2-371.2h-185.6v185.6l371.2 371.2zM512 243.2l38.4 38.4-102.4 108.8-38.4-38.4v-51.2h57.6v-57.6h44.8zM748.8 659.2c0 6.4-6.4 12.8-12.8 12.8 0 0-6.4 0-6.4 0l-243.2-243.2c0 0 0-6.4 0-6.4 0-6.4 6.4-12.8 12.8-12.8 0 0 6.4 0 6.4 0l243.2 243.2c0 0 0 6.4 0 6.4zM1030.4 704c0-12.8-6.4-32-19.2-38.4l-76.8-76.8-179.2 185.6 76.8 76.8c12.8 12.8 25.6 19.2 38.4 19.2s32-6.4 38.4-19.2l102.4-102.4c12.8-12.8 19.2-32 19.2-44.8zM646.4 179.2c-128-128-332.8-128-460.8 0s-128 332.8 0 460.8c57.6 57.6 134.4 89.6 217.6 96v-166.4l198.4 198.4-198.4 198.4v-147.2c-102.4-6.4-204.8-44.8-275.2-121.6-160-160-160-422.4 0-582.4s416-160 582.4 0l-64 64z" />
<glyph unicode="&#xe946;" glyph-name="icon-open-new-window" data-tags="icon-open-new-window" d="M1024 960v-345.6l-121.6 128-537.6-537.6-96 96 531.2 537.6-121.6 121.6zM1024-64v563.2h-83.2v-480h-857.6v864h505.6v76.8h-588.8v-1024z" />
<glyph unicode="&#xe947;" glyph-name="icon-pause-o" data-tags="icon-pause-o" d="M512 960c-281.6 0-512-230.4-512-512s230.4-512 512-512c281.6 0 512 230.4 512 512s-230.4 512-512 512zM486.4 224h-115.2v441.6h108.8v-441.6zM652.8 224h-108.8v441.6h108.8v-441.6z" />
<glyph unicode="&#xe948;" glyph-name="icon-pie" data-tags="icon-pie" d="M761.6-51.2c134.4 70.4 256 256 262.4 428.8h-473.6l211.2-428.8zM0 422.4c0-256 211.2-467.2 467.2-467.2 57.6 0 115.2 12.8 166.4 32-6.4 12.8-192 428.8-192 428.8v473.6c-249.6-12.8-441.6-217.6-441.6-467.2v0zM531.2 960v-492.8h492.8c-19.2 262.4-230.4 473.6-492.8 492.8v0z" />
<glyph unicode="&#xe949;" glyph-name="icon-play-o" data-tags="icon-play-o" d="M512 960c-281.6 0-512-230.4-512-512s230.4-512 512-512c281.6 0 512 230.4 512 512s-230.4 512-512 512zM384 217.6v460.8l384-224-384-236.8z" />
<glyph unicode="&#xe94a;" glyph-name="icon-ppt" data-tags="icon-ppt" d="M460.8-64c-249.6 0-454.4 204.8-454.4 454.4s204.8 454.4 454.4 454.4v-454.4h454.4c0-249.6-204.8-454.4-454.4-454.4zM556.8 505.6v454.4c249.6 0 454.4-204.8 454.4-454.4h-454.4z" />
<glyph unicode="&#xe94b;" glyph-name="icon-print" data-tags="icon-print" d="M320 192h320v-64h-320v64zM256 896h512v-128h64v128c0 38.4-25.6 64-64 64h-512c-38.4 0-64-25.6-64-64v-128h64v128zM320 320h384v-64h-384v64zM960 704h-896c-38.4 0-64-25.6-64-64v-384c0-38.4 25.6-64 64-64h128v-192c0-38.4 25.6-64 64-64h512c38.4 0 64 25.6 64 64v192h128c38.4 0 64 25.6 64 64v384c0 38.4-25.6 64-64 64v0zM768 0h-512v384h512v-384zM896 512c-38.4 0-64 25.6-64 64s25.6 64 64 64c38.4 0 64-25.6 64-64s-25.6-64-64-64v0z" />
<glyph unicode="&#xe94c;" glyph-name="icon-redo" data-tags="icon-redo" d="M0 64c147.2 140.8 313.6 268.8 601.6 256v-166.4l422.4 339.2-422.4 339.2v-166.4c-307.2-6.4-601.6-268.8-601.6-601.6v0z" />
<glyph unicode="&#xe94d;" glyph-name="icon-refresh" data-tags="icon-refresh" d="M134.4 384h-134.4v-320l96 89.6c89.6-134.4 243.2-217.6 416-217.6 262.4 0 473.6 198.4 505.6 448h-128c-32-179.2-185.6-320-377.6-320-134.4 0-256 70.4-320 172.8l153.6 147.2h-211.2zM512 960c-262.4 0-473.6-198.4-505.6-448h128c32 179.2 185.6 320 377.6 320 140.8 0 262.4-70.4 326.4-185.6l-134.4-134.4h320v320l-89.6-89.6c-96 128-249.6 217.6-422.4 217.6v0z" />
<glyph unicode="&#xe94e;" glyph-name="icon-remove" data-tags="icon-remove" d="M1024 576h-1024v-256h1024z" />
<glyph unicode="&#xe94f;" glyph-name="icon-repair" data-tags="icon-repair" d="M28.096 99.52c-37.504-37.376-37.504-97.984 0-135.488 18.752-18.688 43.392-28.032 67.712-28.032 24.704 0 49.28 9.344 68.096 28.032l314.688 315.008-135.488 135.552-315.008-315.072zM815.168 683.392l137.088 70.912 71.744 138.88-66.752 66.816-139.008-71.744-70.784-137.088-167.040-167.040 67.712-67.776 167.040 167.040zM845.12 319.296l-12.8 1.28c-23.424 0-45.568-4.736-66.496-12.48l-393.728 393.728c7.808 20.864 12.48 43.072 12.48 66.496l-1.216 12.8c-6.848 99.904-88.96 178.88-190.464 178.88-29.632 0-57.472-7.168-82.432-19.008l127.424-127.744c6.784-6.528 11.52-14.72 14.336-22.784 8.448-22.784 4.096-49.344-14.336-67.456-12.544-12.48-28.8-18.688-44.992-18.688-7.808 0-15.296 1.536-22.144 4.288-8.448 3.2-16.576 7.488-23.104 14.4l-127.424 127.424c-12.16-25.024-19.328-52.736-19.328-82.112 0-101.824 79.296-183.936 178.88-190.784l13.12-1.28c23.424 0 45.568 5.056 66.176 12.48l393.728-393.664c-7.488-20.608-12.48-42.752-12.48-66.176l1.216-13.12c6.848-99.648 89.024-178.944 190.784-178.944 29.312 0 57.152 7.168 82.112 19.328l-127.296 127.424c-6.848 6.528-11.264 14.72-14.72 22.784-8.128 22.784-3.776 49.408 14.72 67.456 12.48 12.48 28.672 18.688 45.248 18.688 7.488 0 15.040-1.536 22.144-4.288 8.128-3.136 16.32-7.488 22.848-14.4l127.616-127.424c11.904 25.088 19.008 52.8 19.008 82.56 0 101.376-78.976 183.488-178.88 190.336v0z" />
<glyph unicode="&#xe950;" glyph-name="icon-rotate_left" data-tags="icon-rotate_left" d="M537.6 934.4c-179.2 0-339.2-96-422.4-243.2l-115.2 115.2v-332.8h332.8l-140.8 140.8c64 128 192 217.6 345.6 217.6 211.2 0 384-172.8 384-384s-172.8-384-384-384c-166.4 0-307.2 108.8-364.8 256h-108.8c57.6-204.8 243.2-358.4 473.6-358.4 268.8 0 486.4 217.6 486.4 486.4s-217.6 486.4-486.4 486.4z" />
<glyph unicode="&#xe951;" glyph-name="icon-rotate_right" data-tags="icon-rotate_right" d="M486.4 934.4c179.2 0 339.2-96 422.4-243.2l115.2 115.2v-332.8h-332.8l140.8 140.8c-64 128-192 217.6-345.6 217.6-211.2 0-384-172.8-384-384s172.8-384 384-384c166.4 0 307.2 108.8 364.8 256h108.8c-57.6-204.8-243.2-358.4-473.6-358.4-268.8 0-486.4 217.6-486.4 486.4s217.6 486.4 486.4 486.4z" />
<glyph unicode="&#xe952;" glyph-name="icon-search" data-tags="icon-search" d="M1017.6 25.6v0l-313.6 313.6c44.8 64 70.4 140.8 70.4 224 6.4 224-172.8 396.8-384 396.8-217.6 0-390.4-172.8-390.4-390.4s172.8-390.4 390.4-390.4c83.2 0 160 25.6 224 70.4l313.6-313.6zM588.8 428.8l-25.6-38.4-32-25.6c-44.8-25.6-96-44.8-147.2-44.8-140.8 0-256 115.2-256 256s115.2 256 256 256c140.8 0 256-115.2 256-256-6.4-51.2-19.2-102.4-51.2-147.2v0z" />
<glyph unicode="&#xe953;" glyph-name="icon-settings" data-tags="icon-settings" d="M889.6 569.6v0l-25.6 44.8v6.4c57.6 128 51.2 134.4 44.8 147.2l-76.8 70.4c0 0-6.4 6.4-12.8 6.4s-19.2 0-128-51.2h-6.4l-44.8 19.2v6.4c-57.6 128-64 128-76.8 128h-108.8c-12.8 0-19.2 0-70.4-134.4v-6.4l-44.8-12.8h-6.4c-76.8 32-121.6 51.2-134.4 51.2-6.4 0-12.8 0-12.8-6.4l-76.8-76.8c-6.4-12.8-12.8-12.8 44.8-140.8v-6.4l-12.8-44.8h-6.4c-134.4-51.2-134.4-57.6-134.4-70.4v-108.8c0-12.8 0-19.2 134.4-70.4h6.4l19.2-44.8v-6.4c-57.6-128-51.2-134.4-44.8-147.2l76.8-70.4c0 0 6.4-6.4 12.8-6.4s19.2 0 128 51.2h6.4l44.8-12.8v-6.4c51.2-134.4 57.6-134.4 70.4-134.4h108.8c12.8 0 19.2 0 70.4 134.4v6.4l44.8 19.2h6.4c76.8-32 121.6-51.2 134.4-51.2 6.4 0 12.8 0 12.8 6.4l76.8 76.8c12.8 12.8 12.8 12.8-44.8 140.8v6.4l19.2 44.8h6.4c134.4 51.2 134.4 57.6 134.4 70.4v102.4c0 12.8 0 19.2-134.4 70.4v0zM512 275.2c-96 0-172.8 76.8-172.8 172.8s76.8 172.8 172.8 172.8c96 0 172.8-76.8 172.8-172.8s-76.8-172.8-172.8-172.8v0z" />
<glyph unicode="&#xe954;" glyph-name="icon-share" data-tags="icon-share" d="M793.6 275.2c-38.4 0-76.8-12.8-102.4-38.4l-300.8 185.6c0 6.4 0 19.2 0 25.6s0 19.2 0 25.6l294.4 179.2c25.6-19.2 64-38.4 102.4-38.4 96 0 172.8 76.8 172.8 172.8s-76.8 172.8-166.4 172.8c-96 0-172.8-76.8-172.8-172.8 0-6.4 0-19.2 0-25.6l-294.4-179.2c-25.6 19.2-64 38.4-102.4 38.4-96 0-172.8-76.8-172.8-172.8s76.8-172.8 172.8-172.8c38.4 0 76.8 12.8 102.4 38.4l294.4-179.2c0-6.4 0-19.2 0-25.6 0-96 76.8-172.8 172.8-172.8s172.8 76.8 172.8 172.8c-6.4 89.6-83.2 166.4-172.8 166.4v0z" />
<glyph unicode="&#xe955;" glyph-name="icon-standard_task_item" data-tags="icon-standard_task_item" d="M693.056 833.216v38.656c0 3.392-2.752 6.144-6.144 6.144h-66.112v81.984h-209.28v-82.048h-66.112c-3.392 0-6.144-2.752-6.144-6.144v-38.656zM664.256 215.168c5.056 0 9.472 1.856 13.184 5.568s5.568 8.064 5.568 13.184c0 5.056-1.856 9.472-5.568 13.184s-8.064 5.568-13.184 5.568c-5.056 0-9.472-1.856-13.184-5.568s-5.568-8.128-5.568-13.184c0-5.056 1.856-9.472 5.568-13.184 3.776-3.712 8.128-5.568 13.184-5.568zM736.704 843.456v-29.504c0-3.392-2.752-6.144-6.144-6.144h-428.8c-3.392 0-6.144 2.752-6.144 6.144v29.504h-132.032v-907.456h708.288v907.456h-135.168zM666.752 147.2l-199.296 199.296c-13.568-4.736-28.032-7.232-43.52-7.232-27.52 0-52.672 8.128-75.584 24.384s-38.912 37.504-48.128 63.616c-4.48 13.056-6.72 23.36-6.72 30.976 0 2.88 0.832 5.312 2.496 7.296 1.664 1.92 3.968 2.944 6.912 2.944 1.728 0 8.576-3.456 20.608-10.368 11.968-6.912 25.216-14.784 39.616-23.68s22.080-13.568 23.104-14.208l56.448 31.296v65.472l-90.304 57.6c0 3.328 1.536 6.016 4.672 8.192 8.576 5.824 19.072 10.368 31.424 13.632 12.416 3.2 24.256 4.8 35.52 4.8 36.032 0 66.88-12.8 92.48-38.464 25.664-25.6 38.464-56.448 38.464-92.544 0-13.248-1.792-25.728-5.248-37.568l200.96-200.96-83.904-84.48z" />
<glyph unicode="&#xe956;" glyph-name="icon-stop-o" data-tags="icon-stop-o" d="M512 960c-281.6 0-512-230.4-512-512s230.4-512 512-512c281.6 0 512 230.4 512 512s-230.4 512-512 512zM691.2 268.8h-358.4v358.4h352v-358.4z" />
<glyph unicode="&#xe957;" glyph-name="icon-suitcase" data-tags="icon-suitcase" d="M640 294.4c0-12.8-6.4-19.2-12.8-25.6s-12.8-12.8-25.6-12.8h-179.2c-12.8 0-19.2 6.4-25.6 12.8s-12.8 12.8-12.8 25.6v89.6h-384v-275.2c0-25.6 6.4-44.8 25.6-64s38.4-25.6 64-25.6h838.4c25.6 0 44.8 6.4 64 25.6s25.6 38.4 25.6 64v275.2h-384v-89.6zM441.6 384h147.2v-70.4h-147.2v70.4zM998.4 723.2c-19.2 19.2-38.4 25.6-64 25.6h-198.4v89.6c0 12.8-6.4 25.6-19.2 38.4s-25.6 19.2-38.4 19.2h-332.8c-12.8 0-25.6-6.4-38.4-12.8-6.4-12.8-12.8-25.6-12.8-44.8v-89.6h-204.8c-25.6 0-44.8-6.4-64-25.6s-25.6-38.4-25.6-64v-217.6h1024v217.6c0 25.6-6.4 44.8-25.6 64v0zM659.2 748.8h-294.4v76.8h294.4v-76.8z" />
<glyph unicode="&#xe958;" glyph-name="icon-task_order" data-tags="icon-task_order" d="M671.488 833.216v38.656c0 3.392-2.752 6.144-6.144 6.144h-66.112v81.984h-209.28v-82.048h-66.112c-3.392 0-6.144-2.752-6.144-6.144v-38.656zM715.136 843.456v-29.504c0-3.392-2.752-6.144-6.144-6.144h-428.8c-3.392 0-6.144 2.752-6.144 6.144v29.504h-132.032v-907.456h708.288v907.456h-135.168zM709.12 173.568h-427.2v427.2h362.496l-66.176-66.176h-230.144v-294.848h294.848v141.184l66.176 66.176v-273.536zM486.144 286.528l-112.32 112.32 46.784 46.784 65.536-65.536 234.304 234.304 46.784-46.784-281.088-281.088z" />
<glyph unicode="&#xe959;" glyph-name="icon-task_orders" data-tags="icon-task_orders" d="M692.736 833.216v38.656c0 3.392-2.752 6.144-6.144 6.144h-66.112v81.984h-209.28v-82.048h-66.112c-3.392 0-6.144-2.752-6.144-6.144v-38.656zM736.384 843.456v-29.504c0-3.392-2.752-6.144-6.144-6.144h-428.8c-3.392 0-6.144 2.752-6.144 6.144v29.504h-132.032v-907.456h708.288v907.456h-135.168zM316.416 154.752c-14.848 0-26.816 12.096-26.816 27.008s11.968 27.136 26.816 27.136c14.784 0 26.688-12.16 26.688-27.136s-11.968-27.008-26.688-27.008zM316.416 283.328c-14.848 0-26.816 12.096-26.816 27.136 0 14.912 11.968 27.008 26.816 27.008 14.784 0 26.688-12.096 26.688-27.008 0-15.040-11.968-27.136-26.688-27.136zM316.416 406.848c-14.848 0-26.816 12.16-26.816 27.136s11.968 27.136 26.816 27.136c14.784 0 26.688-12.16 26.688-27.136s-11.968-27.136-26.688-27.136zM316.416 533.824c-14.848 0-26.816 12.096-26.816 27.008 0 15.040 11.968 27.136 26.816 27.136 14.784 0 26.688-12.096 26.688-27.136 0-14.848-11.968-27.008-26.688-27.008zM722.88 154.752h-321.28v54.144h321.28v-54.144zM722.88 283.328h-321.28v54.144h321.28v-54.144zM722.88 406.848h-321.28v54.208h321.28v-54.208zM722.88 533.824h-321.28v54.144h321.28v-54.144z" />
<glyph unicode="&#xe95a;" glyph-name="icon-thumbs" data-tags="icon-thumbs" d="M576 960h448v-448h-448v448zM576 384h448v-448h-448v448zM0 384h448v-448h-448v448zM0 960h448v-448h-448v448z" />
<glyph unicode="&#xe95b;" glyph-name="icon-undo" data-tags="icon-undo" d="M1024 64c0 332.8-294.4 595.2-601.6 601.6v166.4l-422.4-339.2 422.4-339.2v166.4c288 12.8 454.4-115.2 601.6-256v0z" />
<glyph unicode="&#xe95c;" glyph-name="icon-unlocked" data-tags="icon-unlocked" d="M832 652.8c0 166.4-140.8 307.2-313.6 307.2-166.4 0-307.2-140.8-307.2-307.2v-140.8h-64v-576h748.8v576h-569.6v140.8c0 108.8 89.6 192 192 192 108.8 0 192-89.6 192-192zM486.4 249.6c-25.6 12.8-38.4 38.4-38.4 57.6 0 38.4 32 70.4 70.4 70.4s70.4-32 70.4-70.4c0-25.6-12.8-44.8-32-57.6l19.2-153.6h-108.8l19.2 153.6z" />
<glyph unicode="&#xe95d;" glyph-name="icon-upload" data-tags="icon-upload" d="M364.8 160h288v435.2h217.6l-364.8 364.8-358.4-364.8h217.6zM902.4 249.6v-192h-780.8v192h-121.6v-313.6h1024v313.6z" />
<glyph unicode="&#xe95e;" glyph-name="icon-user" data-tags="icon-user" d="M512 422.4c128 0 230.4 121.6 230.4 268.8 0 204.8-102.4 268.8-230.4 268.8s-230.4-64-230.4-268.8c0-147.2 102.4-268.8 230.4-268.8zM1017.6 25.6l-115.2 262.4c-6.4 12.8-12.8 19.2-25.6 25.6l-179.2 96c-6.4 0-6.4 0-12.8 0-51.2-38.4-108.8-57.6-172.8-57.6s-121.6 19.2-172.8 57.6c-6.4 0-6.4 0-12.8 0l-179.2-96c-12.8-6.4-19.2-12.8-25.6-25.6l-115.2-262.4c-6.4-19.2-6.4-38.4 0-51.2 12.8-19.2 32-25.6 51.2-25.6h908.8c19.2 0 38.4 12.8 51.2 25.6 6.4 12.8 6.4 32 0 51.2z" />
<glyph unicode="&#xe95f;" glyph-name="icon-user_group" data-tags="icon-user_group" d="M736 390.4c70.4 0 128 64 128 147.2 0 115.2-57.6 147.2-128 147.2s-128-32-128-147.2c0-76.8 57.6-147.2 128-147.2zM1024 172.8l-64 147.2c0 6.4-6.4 12.8-12.8 12.8l-102.4 51.2c0 0-6.4 0-6.4 0-25.6-19.2-64-32-96-32-38.4 0-70.4 12.8-102.4 32 0 0 0 0-6.4 0l19.2-6.4c6.4-6.4 12.8-12.8 19.2-19.2l76.8-172.8c6.4-12.8 6.4-25.6 0-38.4s-19.2-19.2-32-19.2h275.2c12.8 0 19.2 6.4 25.6 12.8s6.4 19.2 6.4 32zM345.6 448c83.2 0 153.6 83.2 153.6 179.2 0 140.8-70.4 179.2-153.6 179.2-83.2 6.4-153.6-38.4-153.6-179.2 0-96 70.4-179.2 153.6-179.2zM608 358.4c0 6.4-6.4 12.8-19.2 19.2l-121.6 64c0 0-6.4 0-6.4 0-32-32-76.8-44.8-115.2-44.8-44.8 0-83.2 12.8-115.2 38.4 0 0-6.4 0-6.4 0l-121.6-64c-12.8 0-19.2-6.4-19.2-12.8l-76.8-172.8c-6.4-12.8-6.4-25.6 0-38.4s19.2-19.2 32-19.2h614.4c12.8 0 25.6 6.4 32 19.2s6.4 25.6 0 38.4l-76.8 172.8z" />
<glyph unicode="&#xe960;" glyph-name="icon-use-template" data-tags="icon-use-template" horiz-adv-x="1088" d="M179.2 268.8v364.8h300.8v326.4h-480v-1024h480v332.8zM678.4 768l326.4-320-326.4-320v192h-441.6v256h441.6zM544 960v-320h64v256h416v-896h-416v268.8h-64v-332.8h544v1024z" />
<glyph unicode="&#xe961;" glyph-name="icon-variable" data-tags="icon-variable" d="M1011.2 281.6c-12.8 12.8-25.6 19.2-38.4 19.2s-44.8-6.4-57.6-44.8c-6.4-12.8-6.4-12.8-12.8-12.8s-38.4 38.4-51.2 89.6l-25.6 128c19.2 32 44.8 57.6 64 76.8 12.8 6.4 25.6 12.8 38.4 12.8 38.4 0 57.6 6.4 64 12.8 19.2 12.8 32 25.6 32 44.8s-6.4 32-19.2 44.8c-12.8 12.8-25.6 19.2-44.8 19.2-25.6 0-57.6-12.8-89.6-38.4-19.2-12.8-44.8-38.4-64-64-6.4 25.6-12.8 44.8-19.2 51.2-12.8 25.6-38.4 25.6-44.8 25.6h-6.4l-262.4-6.4 12.8 57.6c12.8 38.4 25.6 70.4 38.4 89.6 6.4 12.8 19.2 25.6 25.6 25.6s12.8 0 25.6-6.4c44.8-6.4 57.6-12.8 64-12.8 19.2 0 32 6.4 44.8 19.2s19.2 25.6 19.2 44.8c0 12.8-6.4 32-25.6 51.2-12.8 12.8-38.4 19.2-64 19.2-38.4 0-76.8-12.8-121.6-38.4-25.6-19.2-64-57.6-89.6-96-19.2-38.4-38.4-89.6-57.6-153.6h-108.8l-25.6-96h108.8l-83.2-332.8c-19.2-70.4-32-83.2-32-89.6-6.4-12.8-32-12.8-44.8-12.8-19.2 0-38.4 0-57.6 6.4-12.8 0-25.6 0-32 0-19.2 0-38.4-6.4-51.2-12.8-12.8-19.2-19.2-32-19.2-51.2 0-12.8 6.4-38.4 25.6-51.2 12.8-12.8 38.4-19.2 64-19.2 64 0 128 25.6 179.2 76.8s89.6 121.6 115.2 217.6l64 268.8 224-6.4 32-102.4-51.2-70.4c-12.8-12.8-25.6-32-38.4-51.2-6.4-12.8-12.8-12.8-19.2-19.2-12.8 19.2-32 25.6-51.2 25.6s-32-6.4-44.8-19.2c-12.8-12.8-19.2-25.6-19.2-44.8s6.4-38.4 25.6-51.2c19.2-6.4 38.4-12.8 57.6-12.8 25.6 0 51.2 12.8 76.8 32 19.2 19.2 51.2 51.2 89.6 96 25.6-64 57.6-108.8 70.4-128 25.6-25.6 64-44.8 108.8-44.8 38.4 0 57.6 12.8 76.8 25.6v0c32 25.6 38.4 51.2 38.4 64 0 19.2-6.4 32-12.8 44.8v0z" />
<glyph unicode="&#xe962;" glyph-name="icon-visibility" data-tags="icon-visibility" d="M512 768c-224 0-416-128-512-320 96-192 288-320 512-320s416 128 512 320c-96 192-288 320-512 320v0zM761.6 601.6c64-38.4 115.2-89.6 153.6-153.6-38.4-57.6-89.6-108.8-147.2-147.2-76.8-51.2-160-76.8-249.6-76.8s-179.2 25.6-249.6 76.8c-70.4 38.4-121.6 89.6-160 147.2 38.4 64 89.6 115.2 153.6 153.6 6.4 0 6.4 6.4 12.8 6.4-12.8-25.6-19.2-57.6-19.2-89.6 0-140.8 115.2-256 256-256s256 115.2 256 256c0 32-6.4 57.6-12.8 89.6 0 0 6.4-6.4 6.4-6.4v0zM512 550.4c0-51.2-44.8-96-96-96s-96 44.8-96 96 44.8 96 96 96c51.2 0 96-38.4 96-96v0z" />
<glyph unicode="&#xe963;" glyph-name="icon-word" data-tags="icon-word" d="M678.4 76.8h-172.8l-32 467.2c0 6.4 0 12.8 0 19.2s0 12.8 0 19.2c0 6.4 0 12.8 0 19.2s0 12.8 0 19.2v0c0-6.4-6.4-12.8-6.4-19.2s-6.4-12.8-6.4-19.2c0-6.4-6.4-12.8-6.4-19.2s-6.4-12.8-6.4-19.2l-230.4-467.2h-179.2l-38.4 723.2h172.8l6.4-480c0-6.4 0-12.8 0-19.2s0-12.8 0-19.2c0-6.4 0-12.8 0-19.2s0-12.8 0-19.2v0c0 6.4 0 12.8 6.4 19.2 0 6.4 6.4 12.8 6.4 19.2s6.4 12.8 6.4 19.2c0 6.4 6.4 12.8 6.4 19.2l230.4 480h172.8l25.6-486.4c0-6.4 0-12.8 0-19.2s0-12.8 0-19.2c0-6.4 0-12.8 0-19.2s0-12.8 0-19.2v0c0 6.4 0 12.8 6.4 19.2 0 6.4 6.4 12.8 6.4 19.2s6.4 12.8 6.4 19.2c0 6.4 6.4 12.8 6.4 19.2l198.4 480h166.4l-345.6-716.8z" />
<glyph unicode="&#xe964;" glyph-name="icon-work_packaging" data-tags="icon-work_packaging" d="M0 576h1024v-640h-1024v640zM576 704h448l-128 256h-320v-256zM448 960h-320l-128-256h448v256z" />
<glyph unicode="&#xe965;" glyph-name="icon-xls" data-tags="icon-xls" d="M972.8 960h-268.8l-192-281.6-192 281.6h-268.8l320-486.4-364.8-537.6h524.8v185.6h-121.6l102.4 147.2 224-332.8h275.2l-364.8 537.6z" />
<glyph unicode="&#xe966;" glyph-name="status-icon-help" data-tags="status-icon-help" d="M512 960c-281.6 0-512-230.4-512-512s230.4-512 512-512 512 230.4 512 512-230.4 512-512 512zM537.6 198.4c-12.8-12.8-25.6-19.2-44.8-19.2s-32 6.4-44.8 12.8c-12.8 12.8-19.2 25.6-19.2 44.8s6.4 32 12.8 44.8 25.6 12.8 44.8 12.8c19.2 0 32-6.4 44.8-12.8 12.8-12.8 12.8-25.6 12.8-44.8 12.8-12.8 6.4-25.6-6.4-38.4zM659.2 518.4c-12.8-19.2-32-38.4-64-64-25.6-12.8-44.8-25.6-51.2-38.4 0-6.4-6.4-19.2-6.4-32v-19.2h-89.6v25.6c0 19.2 0 38.4 12.8 57.6s25.6 32 51.2 51.2c25.6 19.2 38.4 32 51.2 44.8s12.8 25.6 12.8 38.4c0 12.8-6.4 25.6-19.2 32s-25.6 12.8-51.2 12.8c-32 0-76.8-12.8-121.6-32l-32 76.8c51.2 32 108.8 44.8 166.4 44.8 51.2 0 89.6-12.8 115.2-32 25.6-25.6 44.8-51.2 44.8-96-6.4-25.6-12.8-51.2-19.2-70.4z" />
<glyph unicode="&#xe967;" glyph-name="status-icon-info" data-tags="status-icon-info" d="M512 960c-281.6 0-512-230.4-512-512s230.4-512 512-512c281.6 0 512 230.4 512 512s-230.4 512-512 512zM588.8 755.2c38.4 0 64-25.6 64-57.6 0-38.4-38.4-76.8-83.2-76.8-38.4 0-64 25.6-64 64 0 25.6 25.6 70.4 83.2 70.4zM460.8 140.8c-32 0-57.6 19.2-32 108.8l38.4 153.6c6.4 25.6 6.4 32 0 32-12.8 6.4-57.6-12.8-83.2-32l-12.8 32c76.8 64 166.4 102.4 211.2 102.4 32 0 38.4-38.4 19.2-102.4l-44.8-166.4c-6.4-32-6.4-38.4 6.4-38.4s44.8 12.8 70.4 38.4l19.2-25.6c-76.8-70.4-160-102.4-192-102.4z" />
<glyph unicode="&#xe968;" glyph-name="status-icon-ok" data-tags="status-icon-ok" d="M512 960c-281.6 0-512-230.4-512-512s230.4-512 512-512c281.6 0 512 230.4 512 512s-230.4 512-512 512zM441.6 198.4l-217.6 217.6 83.2 83.2 140.8-140.8 288 288 83.2-83.2-377.6-364.8z" />
<glyph unicode="&#xe969;" glyph-name="status-icon-pending" data-tags="status-icon-pending" d="M512 960c-281.6 0-512-230.4-512-512s230.4-512 512-512c281.6 0 512 230.4 512 512s-230.4 512-512 512zM512 19.2c-236.8 0-428.8 192-428.8 428.8s192 428.8 428.8 428.8c236.8 0 428.8-192 428.8-428.8s-192-428.8-428.8-428.8zM480 704v-262.4l236.8-140.8 44.8 64-204.8 128v211.2z" />
<glyph unicode="&#xe96a;" glyph-name="status-icon-rejected" data-tags="status-icon-rejected" d="M512 960c-281.6 0-512-230.4-512-512s230.4-512 512-512c281.6 0 512 230.4 512 512s-230.4 512-512 512zM755.2 268.8l-64-64-179.2 179.2-179.2-179.2-64 64 179.2 179.2-179.2 179.2 64 64 179.2-179.2 179.2 179.2 64-64-179.2-179.2 179.2-179.2z" />
<glyph unicode="&#xe96b;" glyph-name="status-icon-warning" data-tags="status-icon-warning" d="M1017.6 108.8l-435.2 761.6c-12.8 32-44.8 44.8-70.4 44.8v0c-25.6 0-57.6-12.8-70.4-44.8l-435.2-761.6c-25.6-51.2 12.8-115.2 70.4-115.2h864c64-6.4 102.4 57.6 76.8 115.2zM576 140.8h-121.6v102.4h121.6v-102.4zM576 307.2h-121.6v339.2h121.6v-339.2z" />
</font>
</defs>
</svg>
